<svg id="visual" viewBox="0 0 960 200" width="960" height="200" xmlns="http://www.w3.org/2000/svg" xmlns:xlink="http://www.w3.org/1999/xlink" version="1.1"><path d="M0 160L22.8 159C45.7 158 91.3 156 137 157C182.7 158 228.3 162 274 163.5C319.7 165 365.3 164 411.2 163.7C457 163.3 503 163.7 548.8 164C594.7 164.3 640.3 164.7 686 163C731.7 161.3 777.3 157.7 823 156.7C868.7 155.7 914.3 157.3 937.2 158.2L960 159L960 201L937.2 201C914.3 201 868.7 201 823 201C777.3 201 731.7 201 686 201C640.3 201 594.7 201 548.8 201C503 201 457 201 411.2 201C365.3 201 319.7 201 274 201C228.3 201 182.7 201 137 201C91.3 201 45.7 201 22.8 201L0 201Z" fill="#4E3D2D" stroke-linecap="round" stroke-linejoin="miter"></path></svg>